<?xml version="1.0" encoding="utf-8"?>
<!-- Generator: Adobe Illustrator 16.0.0, SVG Export Plug-In . SVG Version: 6.00 Build 0)  -->
<!DOCTYPE svg PUBLIC "-//W3C//DTD SVG 1.1//EN" "http://www.w3.org/Graphics/SVG/1.1/DTD/svg11.dtd">
<svg version="1.1" id="图层_1" xmlns="http://www.w3.org/2000/svg" xmlns:xlink="http://www.w3.org/1999/xlink" x="0px" y="0px" viewBox="0 0 427.3 100.4" enable-background="new 0 0 427.3 100.4" xml:space="preserve">
<path fill="#80bd01" d="M398.833,99.472c-0.859,0-1.716-0.225-2.468-0.66l-7.853-4.646c-1.172-0.656-0.601-0.888-0.213-1.023
  c1.563-0.543,1.881-0.668,3.551-1.614c0.173-0.099,0.404-0.062,0.584,0.045l6.033,3.582c0.219,0.121,0.526,0.121,0.728,0
  l23.522-13.577c0.219-0.125,0.358-0.376,0.358-0.636V53.796c0-0.265-0.14-0.513-0.364-0.647l-23.513-13.565
  c-0.217-0.127-0.506-0.127-0.724,0L374.97,53.152c-0.229,0.131-0.373,0.386-0.373,0.644v27.146c0,0.26,0.144,0.506,0.371,0.629
  l6.442,3.722c3.496,1.748,5.638-0.31,5.638-2.379v-26.8c0-0.379,0.305-0.678,0.683-0.678h2.983c0.373,0,0.682,0.299,0.682,0.678
  v26.8c0,4.666-2.541,7.342-6.965,7.342c-1.36,0-2.43,0-5.418-1.472l-6.168-3.551c-1.524-0.882-2.467-2.528-2.467-4.291V53.796
  c0-1.763,0.942-3.41,2.467-4.287l23.521-13.592c1.489-0.841,3.468-0.841,4.944,0l23.519,13.592c1.524,0.882,2.472,2.524,2.472,4.287
  v27.146c0,1.763-0.947,3.403-2.472,4.291L401.31,98.812C400.558,99.247,399.703,99.472,398.833,99.472"/>
<path fill="#80bd01" d="M406.099,80.771c-10.294,0-12.449-4.725-12.449-8.687c0-0.377,0.303-0.678,0.68-0.678h3.041
  c0.339,0,0.623,0.243,0.675,0.575c0.459,3.097,1.828,4.658,8.054,4.658c4.954,0,7.064-1.121,7.064-3.75
  c0-1.515-0.598-2.64-8.299-3.394c-6.437-0.638-10.416-2.06-10.416-7.208c0-4.745,4-7.576,10.707-7.576
  c7.535,0,11.263,2.615,11.736,8.227c0.018,0.193-0.052,0.379-0.181,0.523c-0.129,0.135-0.308,0.217-0.498,0.217h-3.052
  c-0.317,0-0.596-0.225-0.661-0.531c-0.731-3.258-2.513-4.299-7.345-4.299c-5.41,0-6.039,1.885-6.039,3.297
  c0,1.711,0.742,2.209,8.047,3.176c7.229,0.955,10.662,2.309,10.662,7.39C417.825,77.836,413.551,80.771,406.099,80.771"/>
</svg>
